<?xml version="1.0" standalone="no"?>
<!DOCTYPE svg PUBLIC "-//W3C//DTD SVG 20010904//EN"
 "http://www.w3.org/TR/2001/REC-SVG-20010904/DTD/svg10.dtd">
<svg version="1.0" xmlns="http://www.w3.org/2000/svg"
 width="786.000000pt" height="786.000000pt" viewBox="0 0 786.000000 786.000000"
 preserveAspectRatio="xMidYMid meet">
<metadata>
Created by potrace 1.11, written by Peter Selinger 2001-2013
</metadata>
<g transform="translate(0.000000,786.000000) scale(0.100000,-0.100000)"
fill="#000000" stroke="none">
<path d="M1846 6185 c-3 -8 -1 -15 4 -15 6 0 10 -6 10 -14 0 -7 7 -19 15 -26
8 -7 13 -16 10 -20 -3 -5 1 -14 8 -22 7 -7 14 -16 16 -20 1 -4 22 -51 47 -104
25 -53 47 -104 49 -113 2 -10 10 -34 19 -54 8 -20 12 -37 9 -37 -3 0 -1 -6 4
-12 11 -14 28 -87 24 -102 -1 -5 2 -12 7 -15 4 -3 14 -36 20 -73 7 -37 15 -82
19 -99 l6 -32 -84 44 c-46 24 -86 46 -89 49 -6 7 -63 33 -72 34 -4 1 -16 9
-28 18 -11 10 -20 16 -20 13 0 -3 -17 3 -38 14 -21 11 -43 16 -48 13 -6 -4 -9
-27 -7 -52 2 -25 5 -76 6 -115 2 -38 8 -101 12 -140 5 -38 8 -73 7 -77 -3 -14
-15 -135 -18 -193 -6 -122 -23 -247 -33 -255 -3 -3 -6 -9 -7 -15 -1 -37 -28
-134 -54 -200 -14 -36 -35 -90 -36 -95 -6 -23 -30 -70 -36 -70 -4 0 -8 -5 -8
-11 0 -12 -67 -112 -102 -152 -12 -15 -40 -46 -61 -69 l-37 -42 57 -54 c32
-30 69 -62 83 -70 14 -9 29 -22 33 -29 4 -7 15 -13 22 -13 8 0 15 -4 15 -8 0
-4 15 -16 33 -27 17 -10 34 -21 37 -25 5 -7 141 -84 150 -86 5 0 22 -8 117
-51 28 -12 60 -25 70 -26 10 -2 25 -7 34 -11 9 -4 27 -8 41 -10 13 -1 29 -5
35 -9 13 -8 65 -17 108 -19 17 -1 33 -5 36 -10 3 -5 96 -10 207 -10 l200 0 -5
-27 c-3 -14 -6 -30 -7 -36 -2 -11 -43 -128 -56 -160 -29 -71 -75 -172 -84
-185 -6 -8 -22 -37 -36 -65 -14 -27 -28 -52 -31 -55 -4 -3 -16 -23 -28 -46
-12 -22 -30 -50 -40 -61 -11 -12 -17 -23 -14 -27 3 -3 -2 -8 -11 -12 -9 -3
-16 -10 -16 -16 0 -5 -6 -16 -12 -23 -15 -16 -20 -22 -68 -85 -73 -95 -238
-261 -356 -359 -16 -13 -43 -36 -59 -50 -17 -14 -44 -35 -59 -46 -16 -11 -50
-37 -77 -57 -27 -21 -52 -38 -56 -38 -4 0 -26 -14 -47 -30 -22 -17 -43 -30
-48 -30 -5 0 -17 -8 -28 -17 -10 -10 -36 -27 -57 -38 -21 -10 -57 -32 -80 -48
-24 -15 -43 -24 -43 -20 0 4 -4 4 -8 -2 -4 -5 -33 -23 -65 -40 -32 -16 -61
-33 -64 -38 -5 -9 22 -31 30 -25 2 2 11 -3 21 -11 9 -8 19 -11 23 -8 3 4 13 1
21 -5 8 -7 20 -13 28 -15 28 -6 40 -10 84 -31 25 -12 53 -22 63 -22 9 0 17 -4
17 -9 0 -10 66 -25 95 -22 11 2 29 8 40 16 11 7 35 16 53 19 17 4 32 11 32 14
0 8 52 33 76 36 9 1 20 9 25 17 5 8 9 11 9 6 0 -7 119 50 130 62 5 6 46 29
103 58 15 8 27 19 27 24 0 6 4 8 9 5 5 -3 14 1 21 9 19 23 48 18 101 -15 27
-16 49 -26 49 -22 0 4 4 2 8 -5 6 -10 160 -90 242 -125 19 -9 55 -25 80 -36
25 -11 81 -34 125 -52 44 -18 89 -36 100 -41 11 -5 32 -10 47 -11 15 -1 24 -6
22 -10 -4 -7 4 -9 31 -8 3 0 18 -6 34 -14 15 -8 39 -16 52 -18 13 -2 29 -7 36
-11 6 -4 15 -3 18 3 4 6 14 10 23 8 10 -1 28 4 40 11 13 7 36 15 50 17 15 3
29 8 32 12 3 4 10 7 15 7 14 0 88 26 100 35 6 4 25 11 43 15 17 3 32 11 32 16
0 5 8 9 19 9 10 0 44 13 76 29 33 17 62 28 66 26 4 -3 12 2 19 10 7 8 16 12
21 9 5 -3 9 0 9 5 0 6 3 10 8 9 8 -3 104 43 112 53 3 4 15 9 27 13 12 4 38 18
57 31 20 13 36 22 36 18 0 -3 8 0 18 8 45 36 102 52 102 28 0 -5 4 -8 9 -4 5
3 12 1 15 -4 3 -5 29 -21 58 -36 177 -93 278 -142 282 -137 4 3 6 0 6 -7 0 -6
6 -11 13 -10 18 2 57 -12 57 -21 0 -5 18 -11 40 -15 22 -4 40 -11 40 -15 0 -5
13 -11 30 -15 16 -4 32 -11 35 -16 4 -5 12 -9 20 -9 8 0 26 -5 42 -12 34 -14
31 -13 68 -23 17 -4 35 -10 40 -14 6 -3 15 -7 20 -8 6 -1 28 -7 49 -12 43 -11
105 -6 120 9 6 6 16 10 23 10 21 0 216 73 313 118 19 8 38 15 43 14 4 -1 7 3
7 8 0 5 3 9 8 9 4 -1 10 0 15 1 4 1 10 3 15 4 18 3 262 128 267 137 4 5 11 7
16 4 5 -4 9 -2 9 3 0 4 16 14 35 22 19 8 35 17 35 22 0 4 8 8 18 8 26 0 82
-29 82 -42 0 -6 3 -9 6 -5 3 3 34 -12 68 -32 34 -21 72 -42 84 -45 12 -4 22
-12 22 -17 0 -5 4 -9 9 -9 5 0 34 -11 65 -25 31 -14 59 -24 62 -24 4 0 10 -3
13 -8 9 -11 79 -43 96 -43 8 0 15 -4 15 -9 0 -5 17 -13 39 -18 38 -10 98 6
199 53 18 8 42 16 52 17 11 1 20 6 20 11 0 5 3 6 7 3 3 -4 13 -1 21 5 7 7 23
14 35 15 12 2 32 10 45 19 l24 15 -45 29 c-24 15 -54 31 -66 35 -11 3 -21 11
-21 16 0 6 -4 7 -10 4 -5 -3 -10 -2 -10 4 0 5 -13 12 -30 16 -16 4 -30 11 -30
16 0 5 -11 11 -25 15 -14 3 -25 10 -25 15 0 5 -4 9 -9 9 -5 0 -44 23 -85 50
-42 27 -80 50 -86 50 -5 0 -10 4 -10 8 0 4 -12 15 -27 24 -16 9 -37 24 -48 32
-11 9 -38 30 -60 47 -155 119 -339 292 -435 408 -19 24 -39 48 -45 55 -31 37
-75 96 -75 101 0 3 -8 15 -18 26 -11 10 -25 32 -33 47 -8 15 -16 29 -19 32
-22 19 -150 267 -180 345 -4 11 -17 45 -29 75 -20 49 -25 68 -34 120 -2 9 -6
21 -10 27 -6 9 40 12 188 12 107 0 199 2 205 6 11 7 26 10 95 19 37 5 131 29
165 43 8 3 19 5 23 4 19 -4 272 122 338 169 24 17 60 41 79 54 19 13 46 35 59
50 14 14 28 26 32 26 8 0 53 42 77 72 11 14 10 20 -5 35 -10 10 -36 41 -58 68
-21 28 -42 52 -45 55 -10 9 -89 145 -90 155 -1 6 -8 17 -15 25 -7 8 -14 18
-15 22 0 4 -10 29 -21 55 -12 27 -23 63 -26 81 -3 17 -9 32 -13 32 -4 0 -11
24 -14 52 -4 29 -13 59 -19 67 -7 8 -10 16 -9 18 2 2 1 22 -3 45 -8 43 -11 77
-20 188 -3 36 -8 81 -12 100 -8 44 -10 211 -2 215 3 2 6 23 8 47 4 73 10 151
14 195 3 28 0 44 -9 47 -7 3 -41 -10 -77 -29 -36 -19 -68 -31 -71 -28 -3 4 -6
2 -6 -4 0 -6 -31 -25 -70 -44 -38 -18 -70 -37 -70 -41 0 -4 -3 -7 -7 -6 -5 1
-23 -6 -42 -16 l-34 -18 7 56 c7 61 21 126 42 195 8 25 14 53 14 63 0 10 4 18
8 18 5 0 9 7 10 15 1 8 3 22 4 30 1 8 5 15 10 15 4 0 8 9 8 20 0 22 81 196
129 278 17 29 27 52 23 52 -4 0 -1 4 6 9 11 7 11 9 -1 14 -8 3 -50 -17 -93
-44 -44 -27 -88 -55 -99 -62 -11 -7 -24 -18 -28 -24 -4 -7 -15 -13 -22 -13 -8
0 -15 -5 -15 -12 0 -6 -3 -8 -7 -5 -3 4 -12 -2 -20 -13 -8 -11 -18 -20 -24
-20 -5 0 -18 -9 -29 -20 -23 -23 -55 -26 -67 -6 -10 18 -97 66 -131 73 -71 15
-212 -4 -212 -28 0 -4 -10 -10 -22 -13 -46 -12 -173 -132 -253 -241 -17 -22
-32 -42 -35 -45 -3 -3 -33 -48 -68 -100 -34 -52 -66 -101 -72 -107 -6 -7 -9
-13 -6 -13 2 0 -18 -38 -45 -85 -27 -47 -49 -89 -49 -93 0 -4 -13 -27 -29 -50
l-29 -44 -28 51 c-16 28 -32 51 -36 51 -5 0 -8 5 -8 12 0 6 -11 26 -25 44 -14
18 -25 36 -25 39 0 4 -11 21 -25 39 -14 17 -29 36 -33 41 -91 124 -124 165
-165 207 l-28 29 -27 -22 c-15 -11 -71 -63 -125 -115 -55 -52 -101 -94 -104
-94 -2 0 -22 -18 -42 -39 -35 -36 -39 -38 -53 -23 -8 9 -57 55 -108 102 -52
47 -118 108 -149 136 -49 46 -81 59 -81 33 0 -5 -7 -9 -15 -9 -8 0 -15 -4 -15
-8 0 -8 -34 -54 -62 -84 -10 -10 -18 -22 -18 -26 0 -5 -11 -19 -25 -32 -14
-13 -25 -29 -25 -36 0 -7 -4 -14 -9 -16 -5 -1 -39 -48 -75 -103 -36 -55 -69
-105 -74 -111 -5 -6 -13 -20 -16 -31 -12 -39 -31 -32 -56 21 -14 28 -27 53
-30 56 -3 3 -14 23 -25 45 -11 22 -23 42 -26 45 -4 3 -9 15 -13 28 -4 12 -12
22 -17 22 -6 0 -8 4 -5 9 3 5 -1 14 -9 21 -8 7 -15 17 -15 22 0 5 -11 24 -25
42 -14 18 -25 38 -25 44 0 7 -5 12 -10 12 -6 0 -14 8 -18 18 -25 64 -208 272
-292 333 -42 30 -101 58 -138 66 -78 16 -173 0 -214 -35 -10 -8 -18 -12 -18
-8 0 4 -12 -5 -27 -19 -35 -32 -53 -32 -83 0 -13 14 -29 25 -36 25 -7 0 -14 3
-16 8 -7 17 -165 125 -235 160 -35 18 -42 19 -47 7z m684 -263 c3 -4 21 -16
40 -26 45 -25 145 -126 195 -196 21 -30 43 -60 49 -65 6 -6 20 -26 30 -45 11
-19 22 -37 26 -40 11 -9 160 -270 153 -270 -3 0 6 -15 19 -32 14 -18 29 -44
33 -58 4 -14 13 -32 20 -40 26 -32 27 -69 1 -118 -36 -71 -71 -146 -71 -156 0
-5 -4 -11 -10 -12 -10 -3 -65 103 -65 125 0 6 -3 11 -8 11 -4 0 -18 25 -32 56
-13 31 -29 62 -34 68 -6 6 -24 36 -40 66 -16 30 -35 62 -42 71 -8 8 -14 23
-14 31 0 9 -7 18 -15 22 -8 3 -15 10 -15 16 0 10 -45 84 -65 106 -5 6 -17 22
-25 34 -8 12 -21 29 -28 36 -7 8 -10 14 -5 14 4 0 3 4 -2 8 -6 4 -21 21 -34
37 -43 57 -106 128 -188 211 -46 46 -83 86 -83 88 0 16 58 57 100 69 20 5 104
-3 110 -11z m2918 -6 c15 -8 35 -22 44 -32 16 -18 11 -24 -90 -129 -59 -61
-118 -126 -132 -144 -60 -81 -80 -107 -92 -121 -8 -9 -25 -34 -38 -55 -13 -22
-32 -49 -42 -59 -10 -11 -21 -29 -24 -39 -4 -11 -10 -25 -15 -31 -25 -30 -59
-89 -59 -101 0 -8 -3 -15 -7 -15 -5 0 -21 -26 -37 -58 -16 -31 -37 -65 -45
-76 -9 -10 -15 -21 -15 -25 2 -8 -49 -114 -57 -121 -4 -3 -9 -15 -13 -27 -7
-23 -26 -32 -26 -12 0 5 -11 35 -25 65 -14 30 -25 59 -25 63 0 5 -3 11 -7 13
-5 2 -16 20 -26 41 l-18 39 33 66 c18 37 36 69 41 70 4 2 7 10 7 18 0 8 5 14
12 14 6 0 8 3 5 7 -4 3 2 20 12 37 11 17 29 49 41 71 37 66 104 180 110 185 7
6 84 122 89 133 2 5 18 24 37 42 19 19 34 38 34 42 0 10 76 79 124 113 71 48
143 57 204 26z m-1472 -571 c28 -33 59 -71 70 -84 10 -13 27 -32 37 -43 9 -10
15 -18 12 -18 -3 0 13 -23 34 -51 22 -29 45 -64 53 -78 7 -14 16 -28 19 -31 9
-8 140 -247 139 -255 0 -3 6 -21 14 -40 9 -20 16 -39 17 -43 15 -45 48 -134
53 -139 3 -4 6 -21 6 -40 0 -18 4 -33 8 -33 5 0 9 -6 10 -12 0 -7 5 -38 12
-68 18 -94 22 -149 22 -325 0 -179 -4 -253 -14 -271 -4 -6 -10 -35 -13 -65 -4
-30 -11 -58 -16 -63 -5 -6 -9 -20 -9 -32 0 -19 -5 -34 -35 -109 -10 -25 -10
-24 -19 -57 -5 -16 -12 -28 -17 -28 -5 0 -8 -3 -7 -7 3 -15 -14 -63 -23 -63
-5 0 -8 -3 -7 -7 3 -10 -67 -149 -82 -163 -3 -3 -23 -32 -45 -65 -21 -33 -48
-72 -59 -86 -12 -14 -32 -40 -46 -59 -14 -18 -59 -69 -101 -114 l-76 -80 -69
71 c-93 95 -144 152 -144 158 0 3 -11 16 -25 29 -14 13 -25 26 -25 28 0 3 -22
38 -49 79 -40 62 -123 212 -127 229 0 3 -7 19 -14 35 -7 17 -12 34 -11 39 1 4
-2 13 -7 20 -10 12 -36 85 -48 131 -4 17 -8 32 -9 35 -7 20 -15 60 -19 85 -2
17 -5 30 -6 30 -1 0 -3 16 -5 35 -2 19 -6 69 -10 110 -8 90 -8 97 0 225 8 152
10 169 16 180 3 6 7 28 8 50 2 22 7 46 13 53 6 6 8 12 5 12 -4 0 0 18 8 39 7
22 11 42 8 45 -3 3 -2 11 4 18 5 7 20 47 33 88 12 41 26 80 30 85 4 6 13 27
19 47 7 20 18 42 26 48 8 7 12 16 9 22 -3 5 1 20 10 32 8 13 28 48 44 78 58
106 85 153 91 158 3 3 19 24 34 48 15 23 34 50 42 60 38 46 133 160 150 179
11 13 22 19 25 15 3 -4 29 -34 56 -67z m1719 -7 c-16 -137 -5 -500 19 -598 9
-41 27 -123 31 -151 2 -14 10 -39 16 -55 14 -34 13 -28 23 -78 4 -22 14 -49
22 -60 8 -11 14 -27 14 -34 0 -8 14 -45 31 -84 17 -38 29 -71 27 -72 -28 -20
-83 -46 -97 -46 -10 0 -24 -7 -31 -15 -7 -8 -16 -13 -20 -10 -5 3 -11 1 -14
-4 -3 -5 -26 -12 -51 -15 -24 -4 -47 -11 -50 -15 -7 -13 -108 -25 -215 -26
-89 0 -179 11 -225 29 -11 4 -26 10 -33 12 -10 3 -13 22 -11 71 2 38 6 75 10
83 7 15 28 130 36 202 4 29 1 37 -14 42 -11 4 -40 27 -66 52 -101 102 -124
217 -67 332 17 33 41 70 53 81 46 43 70 61 83 61 7 0 14 4 16 9 5 15 128 27
187 19 56 -8 81 0 81 28 0 8 5 14 10 14 6 0 10 5 10 10 0 16 99 146 157 207
12 13 20 23 17 23 -5 0 49 49 55 50 1 0 0 -28 -4 -62z m-3496 -7 c28 -33 74
-90 101 -128 28 -37 53 -72 57 -78 5 -5 16 -23 26 -39 18 -26 22 -28 65 -21
64 10 68 10 140 1 34 -4 62 -12 62 -16 0 -5 8 -11 18 -14 49 -16 142 -133 142
-178 0 -10 5 -18 10 -18 6 0 10 -25 10 -55 0 -81 -42 -168 -111 -228 -29 -26
-60 -47 -67 -47 -8 0 -11 -7 -8 -17 3 -10 10 -47 16 -83 6 -36 15 -92 21 -125
13 -80 18 -151 10 -163 -3 -5 -15 -12 -26 -14 -11 -1 -22 -6 -25 -9 -25 -30
-384 -29 -425 1 -5 4 -27 10 -47 14 -21 4 -62 18 -92 31 -29 13 -57 21 -60 18
-3 -4 -6 -2 -6 4 0 6 -14 16 -30 22 -35 12 -34 27 6 112 13 27 24 58 24 69 0
11 4 20 10 20 5 0 9 3 8 8 -2 9 13 64 21 77 3 6 6 17 7 25 0 8 6 29 14 45 7
17 14 44 16 60 5 45 29 168 36 185 17 41 25 375 12 523 -4 46 -3 77 3 77 5 0
33 -27 62 -59z m841 -2127 c0 -7 4 -14 8 -16 4 -1 23 -32 40 -68 18 -36 45
-86 60 -111 63 -107 87 -145 99 -157 7 -7 13 -16 13 -20 0 -4 14 -23 30 -42
16 -19 30 -38 30 -42 0 -4 6 -13 13 -20 6 -7 39 -47 72 -88 33 -41 72 -86 86
-100 30 -28 27 -33 -31 -66 -19 -10 -38 -23 -41 -27 -3 -5 -12 -9 -20 -11 -16
-3 -111 -48 -119 -56 -4 -5 -145 -62 -160 -66 -3 0 -18 -6 -35 -13 -40 -17
-93 -16 -129 3 -16 8 -35 12 -42 9 -8 -3 -14 0 -14 6 0 6 -9 11 -19 11 -11 0
-23 5 -26 10 -4 6 -11 8 -16 5 -5 -4 -9 -1 -9 4 0 6 -7 11 -15 11 -18 0 -108
42 -117 55 -4 6 -8 7 -8 3 0 -3 -24 7 -52 23 -29 16 -65 35 -80 42 -16 6 -28
19 -28 28 0 8 12 27 28 40 15 14 47 49 72 79 25 29 53 60 63 69 9 8 17 21 17
28 0 7 3 13 8 13 4 0 18 17 32 38 14 20 27 39 30 42 15 15 50 71 50 80 0 5 3
10 8 10 4 0 16 17 27 38 10 20 26 45 34 55 8 9 11 17 7 17 -3 0 5 18 19 40 14
22 25 46 25 54 0 8 3 16 8 18 9 4 38 63 48 97 6 24 7 24 20 6 8 -10 14 -24 14
-31z m1786 9 c4 -16 10 -32 14 -38 4 -5 22 -37 40 -70 18 -33 40 -70 48 -82 8
-13 11 -23 7 -23 -3 0 0 -7 9 -15 8 -8 28 -39 45 -69 17 -29 38 -59 46 -66 8
-7 15 -17 15 -22 0 -5 18 -32 40 -61 22 -29 49 -63 59 -77 11 -14 28 -35 38
-47 10 -11 34 -40 52 -63 19 -24 41 -48 48 -56 11 -10 11 -15 0 -26 -13 -13
-252 -134 -292 -148 -11 -4 -33 -13 -50 -21 -34 -14 -30 -13 -70 -24 -16 -4
-34 -11 -40 -14 -16 -11 -94 2 -104 17 -3 4 -13 8 -21 8 -8 0 -28 7 -45 14
-16 7 -36 12 -42 11 -7 -1 -13 3 -13 9 0 5 -5 10 -11 10 -19 0 -149 63 -149
72 0 5 -4 7 -8 4 -5 -3 -24 5 -43 17 -19 11 -36 21 -39 22 -13 2 -50 26 -50
33 0 4 19 28 43 53 59 64 108 120 137 159 14 18 30 38 35 44 6 6 21 28 35 48
14 21 28 38 33 38 4 0 7 9 7 20 0 11 5 20 11 20 5 0 17 15 25 33 8 17 23 46
33 62 11 17 44 81 75 143 31 61 60 112 66 112 5 0 13 -12 16 -27z"/>
<path d="M3855 5076 c-30 -13 -96 -76 -81 -76 5 0 2 -10 -5 -22 -20 -32 -17
-54 17 -124 19 -38 83 -76 129 -76 81 0 163 89 153 164 -9 62 -24 88 -70 123
-32 24 -104 29 -143 11z"/>
<path d="M5261 4932 c-13 -2 -42 -23 -65 -47 -37 -38 -43 -49 -45 -95 -4 -91
55 -156 147 -162 29 -2 52 0 52 4 0 4 6 8 13 8 44 0 119 126 96 161 -5 8 -9
23 -9 33 0 23 -73 95 -98 98 -41 3 -69 3 -91 0z"/>
<path d="M2471 4924 c-19 -8 -42 -24 -52 -37 -10 -12 -23 -27 -29 -34 -5 -6
-12 -32 -14 -56 -11 -110 92 -194 202 -165 17 5 32 13 32 18 0 6 7 10 15 10 8
0 15 4 15 8 0 5 8 17 18 28 21 24 25 38 24 90 0 107 -112 180 -211 138z"/>
<path d="M1620 3741 c-10 -4 -15 -22 -16 -56 -1 -27 -5 -66 -9 -85 -7 -37 -15
-98 -17 -140 -1 -14 -5 -27 -8 -30 -4 -3 -10 -28 -13 -57 -3 -29 -8 -56 -11
-61 -4 -7 27 -42 38 -42 2 0 37 -22 78 -49 63 -42 138 -82 159 -85 3 -1 28
-11 55 -23 65 -28 175 -60 249 -72 60 -10 60 -10 93 24 17 19 32 36 32 39 0 3
20 35 45 71 24 36 42 65 39 65 -3 0 7 17 21 37 14 21 25 43 25 49 0 7 3 14 8
16 4 2 22 31 40 66 41 80 37 103 -18 98 -21 -2 -43 -6 -48 -10 -6 -3 -14 -1
-18 5 -5 8 -9 8 -14 -1 -5 -7 -13 -9 -21 -4 -7 4 -38 9 -68 10 -86 4 -207 32
-291 67 -14 5 -34 12 -45 14 -11 2 -21 8 -23 13 -2 6 -9 10 -14 10 -17 0 -88
33 -88 41 0 4 -11 10 -25 13 -14 4 -25 11 -25 16 0 6 -7 10 -15 10 -8 0 -15 5
-15 10 0 6 -5 10 -12 10 -6 0 -21 8 -32 19 -12 10 -28 16 -36 12z"/>
<path d="M6184 3725 c-4 -8 -11 -15 -17 -15 -5 0 -25 -11 -43 -25 -18 -14 -37
-25 -43 -25 -6 0 -11 -4 -11 -9 0 -5 -13 -12 -30 -16 -16 -4 -30 -10 -30 -13
0 -4 -35 -20 -77 -36 -43 -15 -89 -33 -103 -39 -14 -6 -29 -10 -33 -9 -4 1
-31 -4 -60 -13 -29 -8 -85 -16 -124 -17 -40 -2 -73 -6 -73 -10 0 -8 -21 -5
-37 5 -8 5 -13 3 -13 -3 0 -7 -5 -8 -12 -3 -18 11 -82 11 -90 0 -5 -9 37 -112
52 -127 3 -3 12 -18 20 -35 8 -16 17 -32 20 -35 3 -3 13 -21 23 -40 31 -59 52
-95 57 -100 3 -3 21 -27 39 -55 42 -60 72 -89 80 -76 4 5 24 12 46 15 22 2 47
7 55 9 8 2 32 7 53 12 20 4 40 11 43 16 3 5 14 9 25 9 35 0 240 92 247 112 2
4 9 8 15 8 7 0 40 19 74 43 68 46 72 56 52 132 -13 49 -29 137 -34 190 -2 22
-5 40 -6 40 -1 0 -3 23 -4 52 -1 28 -6 56 -9 62 -10 16 -46 13 -52 -4z"/>
<path d="M1489 3143 c-8 -2 -27 -29 -42 -61 -26 -57 -67 -132 -77 -142 -10
-10 -57 -85 -62 -101 -4 -11 3 -25 20 -41 35 -30 117 -84 153 -100 16 -7 29
-16 29 -20 0 -5 8 -8 18 -8 9 0 26 -7 36 -15 11 -8 28 -15 38 -15 10 0 18 -4
18 -10 0 -5 4 -10 9 -10 5 0 22 -5 38 -12 15 -7 33 -12 38 -13 6 -1 20 -5 33
-9 23 -8 52 8 122 69 53 45 202 198 225 230 11 15 26 34 33 41 26 27 6 44 -52
44 -30 0 -58 4 -61 10 -3 5 -19 8 -36 6 -16 -2 -32 1 -35 6 -3 4 -11 8 -17 6
-7 -1 -32 2 -57 7 -25 5 -51 8 -57 6 -7 -1 -13 2 -13 7 0 4 -25 16 -55 26 -30
9 -86 32 -124 51 -38 19 -75 36 -83 37 -7 2 -15 5 -18 8 -3 3 -12 4 -21 3z"/>
<path d="M6345 3140 c-4 -6 -11 -8 -16 -5 -5 4 -9 1 -9 -4 0 -6 -6 -11 -14
-11 -7 0 -37 -13 -67 -28 -30 -16 -80 -37 -111 -47 -32 -11 -58 -22 -58 -26 0
-3 -10 -5 -22 -5 -13 1 -32 -2 -43 -7 -10 -6 -33 -11 -50 -13 -16 -2 -48 -6
-70 -9 -22 -4 -66 -9 -97 -12 -90 -8 -80 -30 92 -203 141 -140 191 -181 219
-181 61 1 71 3 71 11 0 4 12 11 28 14 35 9 196 87 200 98 2 4 7 6 12 3 4 -3
13 2 20 10 7 8 18 15 25 15 7 0 15 7 19 15 3 8 10 15 16 15 5 0 23 12 39 26
26 23 28 29 19 50 -6 13 -15 24 -20 24 -4 0 -8 6 -8 13 0 8 -9 24 -20 37 -11
13 -23 34 -26 47 -4 13 -9 23 -13 23 -3 0 -22 33 -41 73 -41 85 -59 103 -75
77z"/>
<path d="M442 2787 c-38 -84 -68 -277 -43 -277 6 0 11 -15 11 -33 0 -39 42
-108 94 -155 20 -18 36 -30 36 -26 0 3 11 -1 25 -10 13 -9 33 -16 45 -16 11 0
20 -4 20 -9 0 -5 14 -13 32 -16 18 -4 39 -11 48 -15 8 -4 35 -16 60 -25 25
-10 54 -21 65 -26 31 -13 79 -32 90 -35 6 -1 40 -14 76 -27 41 -16 70 -22 79
-17 8 5 18 6 22 4 4 -3 8 0 8 5 0 6 7 11 15 11 8 0 15 5 15 11 0 5 5 7 10 4 6
-3 10 -1 10 5 0 6 3 9 8 7 4 -3 21 6 37 19 17 13 24 24 16 24 -8 0 -12 3 -8 6
3 3 -15 24 -41 46 -108 92 -209 181 -278 243 -18 17 -44 39 -58 50 -14 11 -42
35 -63 53 -21 18 -55 48 -77 65 -21 18 -63 56 -93 85 -30 28 -58 52 -62 52 -4
0 -18 11 -31 25 -13 14 -28 25 -34 25 -6 0 -22 -24 -34 -53z"/>
<path d="M7309 2807 c-98 -89 -182 -162 -253 -220 -21 -18 -55 -47 -75 -66
-20 -18 -53 -47 -75 -65 -21 -17 -53 -45 -70 -61 -17 -17 -72 -66 -123 -108
-50 -43 -94 -85 -97 -94 -4 -10 2 -22 16 -32 13 -8 23 -13 23 -11 0 3 15 -5
32 -18 32 -22 65 -34 91 -33 33 2 42 5 42 13 0 4 3 7 8 7 4 -1 23 4 42 12 19
7 39 12 44 11 5 -2 16 4 25 12 9 8 21 16 26 17 12 2 20 5 160 58 124 47 187
76 213 100 33 29 85 113 85 137 0 14 3 27 8 30 11 7 12 141 1 148 -5 3 -9 21
-10 40 -1 20 -8 49 -16 65 -8 15 -12 31 -9 35 4 3 1 6 -6 6 -7 0 -9 5 -6 10 3
6 1 10 -4 10 -6 0 -11 7 -11 15 0 24 -22 17 -61 -18z"/>
<path d="M1138 2660 c-35 -33 -70 -63 -79 -65 -10 -3 -24 -17 -33 -30 -16 -24
-15 -26 73 -112 106 -105 187 -176 209 -184 15 -6 55 10 87 34 13 10 151 107
179 127 49 34 94 83 89 96 -3 8 -10 13 -17 12 -6 -1 -35 6 -65 15 -29 9 -57
14 -62 11 -5 -3 -9 -1 -9 4 0 9 -28 22 -55 26 -18 2 -170 80 -173 88 -2 4 -8
6 -12 3 -5 -3 -18 2 -28 12 -10 10 -24 19 -30 21 -7 1 -40 -25 -74 -58z"/>
<path d="M6636 2712 c-3 -5 -49 -30 -103 -57 -54 -27 -101 -54 -105 -60 -4 -5
-8 -7 -8 -3 0 4 -19 0 -42 -9 -24 -8 -72 -23 -108 -32 -87 -22 -90 -38 -18
-94 99 -76 149 -113 188 -135 25 -14 55 -33 68 -43 30 -23 51 -16 106 37 26
24 50 44 53 44 6 0 183 178 183 184 0 7 -37 43 -58 58 -13 9 -46 38 -75 64
-53 50 -72 60 -81 46z"/>
<path d="M410 2202 c0 -5 -18 -12 -39 -15 -46 -6 -105 -55 -117 -95 -10 -35
-11 -103 -2 -122 50 -113 99 -187 176 -267 46 -48 49 -49 147 -27 39 8 98 17
132 19 34 2 68 7 75 11 7 5 22 9 33 10 11 1 38 4 60 8 47 8 104 17 125 20 9 1
20 5 25 8 6 3 28 8 50 12 76 13 180 39 190 47 5 5 21 9 35 9 15 0 30 3 34 7 3
4 14 8 23 9 26 4 73 26 73 34 0 4 -24 15 -52 25 -29 9 -66 22 -83 29 -16 7
-55 21 -85 31 -30 10 -59 21 -65 25 -5 4 -27 10 -47 14 -21 4 -38 11 -38 16 0
5 -6 7 -14 4 -8 -3 -17 -1 -21 5 -3 6 -14 11 -23 11 -9 0 -29 6 -44 14 -14 8
-45 17 -67 21 -23 4 -41 10 -41 15 0 4 -15 11 -32 15 -18 4 -35 9 -38 10 -3 1
-18 5 -35 10 -16 4 -36 12 -42 18 -7 5 -13 6 -13 2 0 -4 -7 -2 -15 5 -9 7 -18
10 -22 7 -3 -4 -15 -1 -27 5 -11 7 -25 13 -31 15 -5 1 -35 10 -65 19 -73 22
-120 28 -120 16z"/>
<path d="M7350 2201 c-8 -5 -34 -12 -57 -16 -24 -4 -43 -11 -43 -16 0 -6 -6
-9 -12 -8 -7 1 -20 -1 -28 -4 -8 -4 -24 -8 -35 -10 -11 -1 -24 -5 -30 -8 -10
-7 -77 -29 -98 -33 -7 -2 -25 -9 -42 -15 -57 -24 -165 -59 -165 -54 0 3 -6 0
-14 -6 -8 -7 -25 -14 -37 -16 -13 -3 -25 -9 -27 -14 -2 -6 -9 -8 -17 -5 -7 3
-16 0 -20 -5 -3 -6 -10 -9 -15 -6 -4 3 -33 -6 -64 -20 -31 -14 -65 -25 -74
-25 -10 0 -22 -4 -27 -9 -6 -5 -28 -15 -50 -22 -22 -7 -42 -14 -45 -15 -3 -1
-15 -5 -27 -9 -13 -4 -23 -12 -23 -17 0 -5 4 -7 9 -4 5 3 11 -1 15 -9 3 -8 12
-12 20 -9 8 3 17 0 21 -5 3 -6 11 -9 16 -6 5 4 9 2 9 -2 0 -8 23 -13 68 -16 6
0 12 -4 12 -8 0 -4 21 -11 48 -15 26 -3 52 -10 57 -15 6 -4 20 -8 30 -8 34 0
105 -13 105 -20 0 -4 10 -7 23 -8 12 0 36 -3 52 -7 31 -7 65 -12 127 -20 21
-2 42 -7 48 -11 6 -4 34 -8 63 -11 61 -4 95 -9 161 -24 57 -12 80 -7 111 24
35 35 125 149 125 159 0 5 6 15 14 22 7 8 20 34 27 59 7 26 16 46 19 46 10 0
4 84 -8 114 -16 37 -48 77 -56 69 -3 -3 -6 -1 -6 5 0 5 -21 16 -47 22 -78 19
-97 21 -113 11z"/>
<path d="M3923 2014 c4 -7 -2 -11 -17 -11 -13 0 -37 -11 -54 -23 -16 -12 -35
-19 -41 -15 -7 3 -10 1 -9 -7 2 -7 -7 -14 -20 -16 -12 -2 -20 -8 -17 -13 4 -5
0 -9 -7 -9 -8 0 -25 -8 -38 -17 -14 -10 -32 -19 -40 -20 -8 -1 -16 -7 -18 -13
-2 -5 -8 -8 -13 -4 -5 3 -9 0 -9 -5 0 -6 -9 -11 -19 -11 -11 0 -21 -3 -23 -7
-1 -5 -18 -16 -36 -25 -21 -11 -31 -13 -27 -5 4 6 0 4 -8 -5 -8 -10 -24 -18
-36 -18 -11 0 -21 -5 -21 -11 0 -5 -4 -8 -9 -4 -5 3 -12 1 -16 -5 -4 -6 -11
-8 -16 -5 -5 4 -9 -1 -9 -11 0 -14 -2 -15 -17 -3 -14 12 -16 12 -8 0 6 -11 3
-13 -14 -8 -13 3 -20 3 -17 0 6 -7 -71 -45 -91 -46 -7 0 -13 -4 -13 -8 0 -4
-9 -5 -20 -2 -13 4 -20 0 -20 -9 0 -8 8 -15 18 -16 62 -5 1334 -2 1342 3 6 3
10 0 10 -7 0 -9 3 -9 10 2 10 16 -4 28 -43 36 -12 2 -23 8 -25 13 -2 6 -9 8
-17 5 -7 -3 -16 -1 -20 5 -3 6 -15 11 -26 11 -10 0 -19 5 -19 10 0 6 -9 10
-20 10 -11 0 -20 4 -20 10 0 5 -6 7 -13 4 -8 -3 -19 2 -26 10 -7 9 -28 18 -47
22 -19 3 -37 11 -41 17 -4 6 -1 7 7 2 8 -5 11 -4 7 3 -4 5 -16 8 -27 5 -11 -3
-20 -1 -20 5 0 6 -13 13 -30 17 -16 4 -30 10 -30 15 0 4 -8 10 -17 14 -16 5
-97 48 -163 86 -14 8 -28 20 -32 25 -4 6 -8 6 -8 1 0 -5 -12 1 -27 15 -14 13
-23 19 -20 13z"/>
<path d="M2075 1988 c-22 -13 -46 -29 -53 -35 -7 -7 -19 -13 -27 -13 -7 0 -15
-7 -19 -15 -3 -8 -17 -15 -31 -15 -15 0 -24 -4 -20 -10 5 -9 -9 -14 -18 -7 -2
1 -11 -4 -20 -12 -10 -7 -17 -11 -17 -7 0 3 -9 -3 -20 -14 -11 -11 -27 -20
-35 -20 -8 0 -15 -4 -15 -9 0 -5 -16 -12 -35 -15 -19 -4 -35 -11 -35 -16 0 -6
-8 -10 -18 -10 -10 0 -22 -4 -28 -10 -5 -5 -20 -11 -33 -13 -12 -2 -26 -8 -29
-13 -4 -5 -14 -9 -22 -9 -8 0 -21 -5 -28 -12 -7 -7 -22 -13 -32 -13 -10 0 -22
-5 -25 -11 -4 -6 -14 -8 -22 -5 -8 3 -11 1 -8 -4 3 -6 -3 -10 -15 -10 -12 0
-28 -6 -36 -14 -12 -13 -12 -15 3 -15 347 -3 1386 -1 1390 3 9 9 -8 26 -27 26
-10 0 -21 6 -23 13 -4 9 -6 9 -6 0 -1 -9 -8 -8 -28 3 -42 22 -86 37 -102 35
-7 -1 -10 2 -7 7 3 6 -6 13 -21 17 -16 3 -30 10 -33 15 -3 5 -17 11 -32 14
-31 5 -66 22 -92 45 -10 9 -21 15 -25 14 -10 -4 -61 21 -61 29 0 5 -9 8 -20 8
-11 0 -20 4 -20 9 0 5 -11 12 -25 15 -14 4 -23 11 -20 17 4 5 3 8 -2 7 -10 -3
-83 31 -103 48 -29 24 -64 25 -105 2z"/>
<path d="M5660 1999 c0 -10 -68 -49 -93 -53 -12 -2 -21 -9 -20 -15 2 -6 -8
-13 -22 -17 -14 -3 -25 -10 -25 -16 0 -5 -4 -7 -10 -3 -5 3 -18 -3 -30 -15
-11 -11 -20 -17 -20 -14 0 4 -7 1 -15 -6 -8 -7 -15 -9 -15 -4 0 5 -4 4 -8 -3
-6 -9 -92 -53 -112 -57 -3 -1 -11 -5 -17 -9 -7 -5 -13 -5 -13 0 0 4 -5 0 -11
-9 -5 -9 -16 -15 -24 -12 -8 4 -18 -1 -21 -10 -3 -9 -10 -14 -14 -11 -5 3 -38
-8 -75 -25 -36 -16 -74 -30 -84 -30 -20 0 -45 -23 -35 -33 4 -3 14 -2 24 3 10
5 20 7 22 4 4 -4 899 -7 1308 -4 58 0 63 1 44 14 -11 8 -39 19 -62 25 -23 7
-42 16 -42 21 0 6 -13 10 -29 10 -16 0 -34 7 -41 15 -6 8 -15 14 -18 14 -15
-2 -52 14 -52 22 0 5 -9 9 -21 9 -11 0 -18 4 -15 9 4 5 -3 7 -14 4 -11 -3 -20
0 -20 6 0 6 -3 10 -7 10 -5 -1 -11 0 -15 1 -5 1 -14 3 -20 4 -7 1 -12 7 -10
14 1 7 -9 12 -23 12 -14 0 -28 6 -31 14 -3 8 -12 12 -20 9 -8 -3 -14 0 -14 6
0 6 -9 11 -19 11 -10 0 -22 7 -25 16 -3 8 -10 12 -16 9 -5 -3 -10 -1 -10 4 0
6 -7 11 -16 11 -9 0 -12 5 -8 12 4 7 3 8 -4 4 -7 -4 -39 9 -72 28 -54 32 -110
44 -110 25z"/>
</g>
</svg>
